<svg aria-hidden="true" xmlns="http://www.w3.org/2000/svg" xmlns:xlink="http://www.w3.org/1999/xlink"><symbol viewBox="0 0 110 33" id="app-store" xmlns="http://www.w3.org/2000/svg">
<g clip-path="url(#aclip0_1_840)">
<path d="M106.086 33H3.85326C1.72904 33 0 31.2444 0 29.0953V3.89895C0 1.749 1.72904 0 3.85326 0H106.086C108.21 0 110 1.749 110 3.89895V29.0953C110 31.2444 108.21 33 106.086 33Z"/>
<path d="M109.211 29.0962C109.211 30.8419 107.815 32.256 106.087 32.256H3.85329C2.1267 32.256 0.72522 30.8419 0.72522 29.0962V3.89825C0.72522 2.15338 2.1267 0.734375 3.85329 0.734375H106.086C107.815 0.734375 109.21 2.15338 109.21 3.89825L109.211 29.0962Z"/>
<path d="M24.5488 16.3219C24.5252 13.6629 26.6991 12.3693 26.7985 12.3091C25.5673 10.4916 23.659 10.2433 22.9884 10.2235C21.3857 10.0527 19.831 11.1945 19.0146 11.1945C18.1818 11.1945 16.9246 10.24 15.5695 10.268C13.8258 10.2952 12.1946 11.3174 11.2999 12.9047C9.45354 16.1412 10.8306 20.8973 12.5995 23.5134C13.4844 24.7946 14.5184 26.2252 15.8718 26.1748C17.1959 26.1196 17.6905 25.3201 19.2884 25.3201C20.8715 25.3201 21.336 26.1748 22.7163 26.1427C24.1373 26.1196 25.032 24.8557 25.8859 23.5629C26.9085 22.0944 27.3192 20.6482 27.3355 20.5739C27.3021 20.5624 24.5757 19.5088 24.5488 16.3219Z"/>
<path d="M21.9414 8.50233C22.6536 7.60061 23.1408 6.37383 23.0056 5.12891C21.9748 5.17511 20.6858 5.85078 19.9435 6.73271C19.2867 7.50986 18.7001 8.78366 18.8516 9.98156C20.0095 10.069 21.1983 9.39003 21.9414 8.50233Z"/>
<path d="M43.7107 25.9903H41.8603L40.8466 22.7654H37.3234L36.3578 25.9903H34.5563L38.0469 15.0112H40.2029L43.7107 25.9903ZM40.5411 21.4124L39.6244 18.5455C39.5275 18.2527 39.3458 17.563 39.0777 16.4773H39.0451C38.9383 16.9442 38.7664 17.6339 38.5301 18.5455L37.6298 21.4124H40.5411Z"/>
<path d="M52.6875 21.9347C52.6875 23.2811 52.3282 24.3453 51.6095 25.1266C50.9658 25.8221 50.1665 26.1694 49.2124 26.1694C48.1824 26.1694 47.4426 25.7948 46.992 25.0457H46.9594V29.2161H45.2222V20.6798C45.2222 19.8334 45.2002 18.9647 45.1578 18.0737H46.6856L46.7826 19.3285H46.8152C47.3945 18.383 48.2737 17.9111 49.4535 17.9111C50.3759 17.9111 51.1459 18.2799 51.7619 19.0183C52.3795 19.7575 52.6875 20.7293 52.6875 21.9347ZM50.9178 21.999C50.9178 21.2285 50.7466 20.5932 50.4028 20.0933C50.0272 19.5719 49.5228 19.3112 48.8905 19.3112C48.4619 19.3112 48.0724 19.4564 47.7245 19.7426C47.3758 20.0314 47.1476 20.4084 47.0409 20.8754C46.9871 21.0932 46.9602 21.2714 46.9602 21.4116V22.7316C46.9602 23.3075 47.1346 23.7934 47.4833 24.1902C47.8321 24.587 48.2851 24.785 48.8424 24.785C49.4967 24.785 50.006 24.5293 50.3702 24.0194C50.7352 23.5088 50.9178 22.8356 50.9178 21.999Z"/>
<path d="M61.6806 21.9347C61.6806 23.2811 61.3213 24.3453 60.6018 25.1266C59.9589 25.8221 59.1596 26.1694 58.2054 26.1694C57.1755 26.1694 56.4357 25.7948 55.9859 25.0457H55.9533V29.2161H54.2161V20.6798C54.2161 19.8334 54.1941 18.9647 54.1517 18.0737H55.6795L55.7765 19.3285H55.8091C56.3876 18.383 57.2668 17.9111 58.4474 17.9111C59.369 17.9111 60.139 18.2799 60.7566 19.0183C61.3718 19.7575 61.6806 20.7293 61.6806 21.9347ZM59.9108 21.999C59.9108 21.2285 59.7389 20.5932 59.3951 20.0933C59.0194 19.5719 58.5167 19.3112 57.8836 19.3112C57.4542 19.3112 57.0655 19.4564 56.7168 19.7426C56.368 20.0314 56.1407 20.4084 56.034 20.8754C55.981 21.0932 55.9533 21.2714 55.9533 21.4116V22.7316C55.9533 23.3075 56.1277 23.7934 56.4748 24.1902C56.8235 24.5862 57.2766 24.785 57.8355 24.785C58.4898 24.785 58.9991 24.5293 59.3633 24.0194C59.7283 23.5088 59.9108 22.8356 59.9108 21.999Z"/>
<path d="M71.7354 22.9117C71.7354 23.8456 71.4152 24.6054 70.7723 25.192C70.0659 25.833 69.0824 26.1531 67.8186 26.1531C66.6518 26.1531 65.7164 25.9254 65.0083 25.4692L65.4108 24.0031C66.1735 24.4701 67.0103 24.7044 67.9221 24.7044C68.5764 24.7044 69.0856 24.5542 69.4515 24.2556C69.8157 23.9569 69.9974 23.556 69.9974 23.056C69.9974 22.6105 69.8475 22.2352 69.5468 21.9307C69.2478 21.6263 68.7483 21.3433 68.0508 21.0818C66.1523 20.3649 65.2039 19.3147 65.2039 17.9336C65.2039 17.0311 65.5363 16.291 66.202 15.7152C66.8653 15.1385 67.7502 14.8506 68.8567 14.8506C69.8434 14.8506 70.6631 15.0247 71.3174 15.372L70.8831 16.8058C70.272 16.4692 69.581 16.3009 68.8078 16.3009C68.1967 16.3009 67.7192 16.4536 67.377 16.7572C67.0877 17.0286 66.9427 17.3594 66.9427 17.7513C66.9427 18.1852 67.1081 18.5441 67.4405 18.8263C67.7298 19.087 68.2553 19.3691 69.018 19.6735C69.951 20.0539 70.6362 20.4985 71.077 21.0084C71.5162 21.5166 71.7354 22.1527 71.7354 22.9117Z"/>
<path d="M77.4791 19.3936H75.5642V23.2373C75.5642 24.2149 75.9016 24.7034 76.5779 24.7034C76.8883 24.7034 77.1458 24.6761 77.3495 24.6217L77.3976 25.9573C77.0554 26.0869 76.6048 26.1521 76.0466 26.1521C75.3605 26.1521 74.8244 25.94 74.4374 25.5168C74.052 25.0927 73.858 24.3816 73.858 23.3825V19.392H72.7173V18.072H73.858V16.6225L75.5642 16.1011V18.072H77.4791V19.3936Z"/>
<path d="M86.1185 21.967C86.1185 23.1839 85.7747 24.1829 85.0886 24.9642C84.3691 25.7686 83.4142 26.1695 82.2237 26.1695C81.0765 26.1695 80.163 25.7843 79.4819 25.0137C78.8007 24.2432 78.4601 23.2705 78.4601 22.0982C78.4601 20.8714 78.8105 19.8665 79.5136 19.0853C80.2152 18.3032 81.162 17.9121 82.3525 17.9121C83.4997 17.9121 84.4229 18.2974 85.1196 19.0688C85.7861 19.817 86.1185 20.7831 86.1185 21.967ZM84.3162 22.0239C84.3162 21.2938 84.1622 20.6676 83.8501 20.1454C83.4859 19.5134 82.9652 19.1983 82.2905 19.1983C81.5922 19.1983 81.0618 19.5143 80.6976 20.1454C80.3855 20.6684 80.2315 21.3045 80.2315 22.0569C80.2315 22.787 80.3855 23.4132 80.6976 23.9346C81.0732 24.5666 81.5979 24.8817 82.275 24.8817C82.9383 24.8817 83.459 24.56 83.8346 23.9181C84.1548 23.386 84.3162 22.7532 84.3162 22.0239Z"/>
<path d="M91.7653 19.6205C91.5934 19.5884 91.41 19.5719 91.2177 19.5719C90.6066 19.5719 90.134 19.8053 89.8016 20.2731C89.5123 20.6856 89.3673 21.207 89.3673 21.8365V25.9904H87.6309L87.6472 20.5668C87.6472 19.6544 87.6252 18.8236 87.582 18.0745H89.0951L89.1587 19.5892H89.2068C89.3901 19.0686 89.6794 18.6495 90.0754 18.3352C90.4624 18.0522 90.8804 17.9111 91.331 17.9111C91.4915 17.9111 91.6365 17.9227 91.7653 17.9433V19.6205Z"/>
<path d="M99.5345 21.6577C99.5345 21.9728 99.5142 22.2385 99.471 22.4554H94.2594C94.2798 23.2375 94.5316 23.8357 95.0156 24.2482C95.4548 24.6169 96.0227 24.8017 96.7202 24.8017C97.4918 24.8017 98.1958 24.6772 98.8289 24.4272L99.1011 25.6482C98.3612 25.9749 97.4877 26.1374 96.4798 26.1374C95.2674 26.1374 94.3157 25.7761 93.6231 25.0542C92.9321 24.3323 92.5858 23.3629 92.5858 22.1469C92.5858 20.9531 92.9077 19.959 93.5522 19.1662C94.2269 18.3197 95.1386 17.8965 96.2859 17.8965C97.4128 17.8965 98.2659 18.3197 98.8452 19.1662C99.304 19.8385 99.5345 20.6701 99.5345 21.6577ZM97.878 21.2014C97.8894 20.68 97.7762 20.2296 97.5407 19.8493C97.24 19.36 96.778 19.1158 96.1563 19.1158C95.5884 19.1158 95.1264 19.3543 94.7736 19.8328C94.4843 20.2131 94.3124 20.6693 94.2594 21.2006H97.878V21.2014Z"/>
<path d="M39.9667 8.25742C39.9667 9.22845 39.6791 9.9594 39.1046 10.4503C38.5726 10.9032 37.8164 11.1301 36.837 11.1301C36.3514 11.1301 35.9358 11.1086 35.5879 11.0657V5.76015C36.0417 5.6859 36.5306 5.64795 37.0586 5.64795C37.9916 5.64795 38.6948 5.85337 39.169 6.26422C39.7003 6.7287 39.9667 7.39282 39.9667 8.25742ZM39.0663 8.28135C39.0663 7.65187 38.9017 7.16925 38.5726 6.83265C38.2434 6.49687 37.7626 6.32857 37.1295 6.32857C36.8606 6.32857 36.6317 6.34672 36.4418 6.38467V10.4181C36.5469 10.4346 36.7392 10.442 37.0187 10.442C37.6722 10.442 38.1766 10.258 38.5318 9.8901C38.8871 9.52215 39.0663 8.9859 39.0663 8.28135Z"/>
<path d="M44.7408 9.10532C44.7408 9.70344 44.5721 10.1935 44.2348 10.5779C43.8811 10.9731 43.4126 11.1703 42.8276 11.1703C42.2637 11.1703 41.8148 10.9814 41.4799 10.6019C41.1458 10.2232 40.9788 9.74552 40.9788 9.16967C40.9788 8.56742 41.1507 8.07324 41.4962 7.68962C41.8416 7.30599 42.3061 7.11377 42.8911 7.11377C43.455 7.11377 43.908 7.30269 44.2511 7.68137C44.577 8.04932 44.7408 8.52452 44.7408 9.10532ZM43.8551 9.13337C43.8551 8.77449 43.7785 8.46677 43.6261 8.21019C43.4468 7.89999 43.1918 7.74489 42.8602 7.74489C42.5171 7.74489 42.2564 7.89999 42.0771 8.21019C41.9239 8.46677 41.8482 8.77944 41.8482 9.14904C41.8482 9.50792 41.9248 9.81564 42.0771 10.0722C42.2621 10.3824 42.5196 10.5375 42.852 10.5375C43.1779 10.5375 43.4338 10.3799 43.6179 10.064C43.776 9.80244 43.8551 9.49224 43.8551 9.13337Z"/>
<path d="M51.1418 7.19336L49.94 11.0824H49.1578L48.6599 9.39363C48.5336 8.97206 48.431 8.55296 48.3511 8.13716H48.3356C48.2615 8.56451 48.1588 8.98278 48.0268 9.39363L47.498 11.0824H46.7068L45.5767 7.19336H46.4542L46.8885 9.04218C46.9936 9.47943 47.08 9.89606 47.1493 10.2904H47.1647C47.2283 9.96536 47.3334 9.55121 47.4817 9.05043L48.0268 7.19418H48.7227L49.245 9.01083C49.3713 9.45386 49.4739 9.88038 49.553 10.2912H49.5766C49.6344 9.89111 49.7216 9.46458 49.8373 9.01083L50.3034 7.19418H51.1418V7.19336Z"/>
<path d="M55.5688 11.0821H54.7149V8.85455C54.7149 8.16815 54.4574 7.82495 53.9408 7.82495C53.6874 7.82495 53.4829 7.919 53.324 8.10793C53.1668 8.29685 53.0869 8.5196 53.0869 8.77453V11.0812H52.233V8.30428C52.233 7.96273 52.2224 7.5923 52.202 7.19135H52.9525L52.9924 7.79938H53.016C53.1154 7.61045 53.2637 7.45453 53.4585 7.32995C53.6899 7.18475 53.949 7.11133 54.2325 7.11133C54.5911 7.11133 54.8893 7.22848 55.1264 7.4636C55.4214 7.75153 55.5688 8.18135 55.5688 8.75225V11.0821Z"/>
<path d="M57.9235 11.0822H57.0704V5.40869H57.9235V11.0822Z"/>
<path d="M62.951 9.10532C62.951 9.70344 62.7823 10.1935 62.445 10.5779C62.0913 10.9731 61.622 11.1703 61.0378 11.1703C60.4731 11.1703 60.0241 10.9814 59.6901 10.6019C59.356 10.2232 59.189 9.74552 59.189 9.16967C59.189 8.56742 59.3609 8.07324 59.7064 7.68962C60.0519 7.30599 60.5163 7.11377 61.1005 7.11377C61.6652 7.11377 62.1174 7.30269 62.4613 7.68137C62.7872 8.04932 62.951 8.52452 62.951 9.10532ZM62.0644 9.13337C62.0644 8.77449 61.9879 8.46677 61.8355 8.21019C61.657 7.89999 61.4012 7.74489 61.0704 7.74489C60.7265 7.74489 60.4658 7.89999 60.2873 8.21019C60.1342 8.46677 60.0584 8.77944 60.0584 9.14904C60.0584 9.50792 60.135 9.81564 60.2873 10.0722C60.4723 10.3824 60.7298 10.5375 61.0622 10.5375C61.3882 10.5375 61.6432 10.3799 61.8273 10.064C61.9862 9.80244 62.0644 9.49224 62.0644 9.13337Z"/>
<path d="M67.0838 11.082H66.317L66.2535 10.634H66.2298C65.9675 10.9913 65.5935 11.1703 65.1078 11.1703C64.7452 11.1703 64.4519 11.0523 64.2311 10.818C64.0306 10.6052 63.9304 10.3403 63.9304 10.026C63.9304 9.55082 64.126 9.18864 64.5195 8.93784C64.9123 8.68704 65.4647 8.56412 66.1761 8.56989V8.49729C66.1761 7.98497 65.9104 7.72922 65.3783 7.72922C64.9995 7.72922 64.6654 7.82574 64.3769 8.01714L64.2034 7.44954C64.5603 7.22597 65.0011 7.11377 65.5209 7.11377C66.5248 7.11377 67.0283 7.65002 67.0283 8.72252V10.1547C67.0283 10.5433 67.0471 10.8527 67.0838 11.082ZM66.1972 9.74552V9.14574C65.2553 9.12924 64.7843 9.39077 64.7843 9.92949C64.7843 10.1324 64.8381 10.2842 64.9481 10.3857C65.0581 10.4872 65.1983 10.5375 65.3653 10.5375C65.5527 10.5375 65.7279 10.4773 65.8876 10.3577C66.0481 10.2372 66.1467 10.0846 66.1834 9.89732C66.1923 9.85524 66.1972 9.80409 66.1972 9.74552Z"/>
<path d="M71.936 11.0822H71.1782L71.1382 10.4577H71.1146C70.8726 10.9329 70.4603 11.1705 69.881 11.1705C69.4182 11.1705 69.0328 10.9865 68.7272 10.6186C68.4217 10.2506 68.2693 9.77294 68.2693 9.18637C68.2693 8.55689 68.4347 8.04704 68.7671 7.65764C69.089 7.29464 69.4834 7.11314 69.9527 7.11314C70.4685 7.11314 70.8294 7.28887 71.0348 7.64114H71.0511V5.40869H71.9058V10.0345C71.9058 10.4131 71.9156 10.7621 71.936 11.0822ZM71.0511 9.44212V8.79367C71.0511 8.68147 71.0429 8.59072 71.0274 8.52142C70.9794 8.31352 70.8759 8.13862 70.7186 7.99754C70.5597 7.85647 70.3682 7.78552 70.1474 7.78552C69.8288 7.78552 69.5795 7.91339 69.3962 8.16997C69.2145 8.42654 69.1224 8.75407 69.1224 9.15419C69.1224 9.53864 69.2096 9.85049 69.3848 10.0906C69.5697 10.3463 69.8191 10.4742 70.1311 10.4742C70.4114 10.4742 70.6355 10.3678 70.8058 10.1541C70.9704 9.95692 71.0511 9.71932 71.0511 9.44212Z"/>
<path d="M79.2392 9.10532C79.2392 9.70344 79.0705 10.1935 78.7332 10.5779C78.3795 10.9731 77.9118 11.1703 77.326 11.1703C76.763 11.1703 76.314 10.9814 75.9783 10.6019C75.6442 10.2232 75.4772 9.74552 75.4772 9.16967C75.4772 8.56742 75.6491 8.07324 75.9946 7.68962C76.3401 7.30599 76.8045 7.11377 77.3904 7.11377C77.9534 7.11377 78.4073 7.30269 78.7495 7.68137C79.0754 8.04932 79.2392 8.52452 79.2392 9.10532ZM78.3543 9.13337C78.3543 8.77449 78.2777 8.46677 78.1253 8.21019C77.9452 7.89999 77.691 7.74489 77.3586 7.74489C77.0164 7.74489 76.7556 7.89999 76.5755 8.21019C76.4224 8.46677 76.3466 8.77944 76.3466 9.14904C76.3466 9.50792 76.4232 9.81564 76.5755 10.0722C76.7605 10.3824 77.018 10.5375 77.3504 10.5375C77.6764 10.5375 77.933 10.3799 78.1172 10.064C78.2744 9.80244 78.3543 9.49224 78.3543 9.13337Z"/>
<path d="M83.8306 11.0821H82.9775V8.85455C82.9775 8.16815 82.72 7.82495 82.2026 7.82495C81.9492 7.82495 81.7447 7.919 81.5866 8.10793C81.4285 8.29685 81.3495 8.5196 81.3495 8.77453V11.0812H80.4947V8.30428C80.4947 7.96273 80.485 7.5923 80.4646 7.19135H81.2142L81.2542 7.79938H81.2778C81.378 7.61045 81.5263 7.45453 81.7202 7.32995C81.9525 7.18475 82.2108 7.11133 82.4951 7.11133C82.8528 7.11133 83.151 7.22848 83.3882 7.4636C83.6839 7.75153 83.8306 8.18135 83.8306 8.75225V11.0821Z"/>
<path d="M89.5775 7.84078H88.6372V9.73003C88.6372 10.2102 88.8042 10.4503 89.135 10.4503C89.2882 10.4503 89.4153 10.4371 89.5156 10.4098L89.5376 11.0657C89.3689 11.1301 89.1473 11.1622 88.8743 11.1622C88.537 11.1622 88.2746 11.0583 88.0847 10.8504C87.8941 10.6425 87.7996 10.2927 87.7996 9.80181V7.84078H87.2382V7.19316H87.7996V6.48036L88.6364 6.22461V7.19233H89.5767V7.84078H89.5775Z"/>
<path d="M94.0981 11.0822H93.2433V8.87122C93.2433 8.17409 92.9858 7.82512 92.4701 7.82512C92.0741 7.82512 91.8035 8.02724 91.6552 8.43149C91.63 8.51647 91.6153 8.62042 91.6153 8.74252V11.0814H90.7622V5.40869H91.6153V7.75252H91.6316C91.9005 7.32599 92.2859 7.11314 92.7854 7.11314C93.139 7.11314 93.4315 7.23029 93.6638 7.46542C93.953 7.75829 94.0981 8.19389 94.0981 8.76974V11.0822Z"/>
<path d="M98.7613 8.95362C98.7613 9.10872 98.7499 9.23907 98.7296 9.3455H96.1686C96.18 9.72995 96.3022 10.0228 96.5393 10.2258C96.7561 10.4073 97.0356 10.498 97.3778 10.498C97.7567 10.498 98.1021 10.437 98.4134 10.314L98.547 10.9146C98.1828 11.0747 97.7542 11.1547 97.258 11.1547C96.6632 11.1547 96.1947 10.9773 95.8557 10.6226C95.5151 10.2678 95.3464 9.79182 95.3464 9.19452C95.3464 8.60795 95.5037 8.11954 95.8207 7.73014C96.1515 7.31434 96.5988 7.10645 97.1635 7.10645C97.7159 7.10645 98.1356 7.31434 98.4191 7.73014C98.6481 8.06015 98.7613 8.46852 98.7613 8.95362ZM97.9465 8.73004C97.953 8.47347 97.8968 8.25237 97.7811 8.06592C97.6328 7.82585 97.4071 7.7054 97.1016 7.7054C96.8229 7.7054 96.5956 7.82255 96.422 8.05767C96.2802 8.24495 96.1963 8.46852 96.1686 8.73004H97.9465Z"/>
</g>
<defs>
<clipPath id="aclip0_1_840">
<rect width="110" height="33"/>
</clipPath>
</defs>
</symbol><symbol viewBox="0 0 9 6" id="arrow" xmlns="http://www.w3.org/2000/svg">
<g clip-path="url(#bclip0_1_31)">
<path d="M1.0575 0L0 1.1417L4.5 6L9 1.1417L7.9425 0L4.5 3.7085L1.0575 0Z"/>
</g>
<defs>
<clipPath id="bclip0_1_31">
<rect width="9" height="6"/>
</clipPath>
</defs>
</symbol><symbol viewBox="0 0 30 30" id="facebook" xmlns="http://www.w3.org/2000/svg">
<g clip-path="url(#cclip0_1_779)">
<g clip-path="url(#cclip1_1_779)">
<path d="M26.25 30H3.75C1.65 30 0 28.35 0 26.25V3.75C0 1.65 1.65 0 3.75 0H26.25C28.35 0 30 1.65 30 3.75V26.25C30 28.35 28.35 30 26.25 30Z"/>
<path d="M16.2 22.95V15.675H18.6L18.975 12.825H16.2V11.025C16.2 10.2 16.425 9.675 17.625 9.675H19.125V7.2C18.9 7.2 18 7.125 16.95 7.125C14.775 7.125 13.35 8.475 13.35 10.875V12.975H10.875V15.825H13.35V23.1H16.2V22.95Z"/>
</g>
<g clip-path="url(#cclip2_1_779)">
<path d="M26.25 30H3.75C1.65 30 0 28.35 0 26.25V3.75C0 1.65 1.65 0 3.75 0H26.25C28.35 0 30 1.65 30 3.75V26.25C30 28.35 28.35 30 26.25 30Z"/>
<path d="M16.2 22.95V15.675H18.6L18.975 12.825H16.2V11.025C16.2 10.2 16.425 9.675 17.625 9.675H19.125V7.2C18.9 7.2 18 7.125 16.95 7.125C14.775 7.125 13.35 8.475 13.35 10.875V12.975H10.875V15.825H13.35V23.1H16.2V22.95Z"/>
</g>
</g>
<defs>
<clipPath id="cclip0_1_779">
<rect width="30" height="30"/>
</clipPath>
<clipPath id="cclip1_1_779">
<rect width="30" height="30"/>
</clipPath>
<clipPath id="cclip2_1_779">
<rect width="30" height="30"/>
</clipPath>
</defs>
</symbol><symbol viewBox="0 0 110 33" id="google-play" xmlns="http://www.w3.org/2000/svg">
<g clip-path="url(#dclip0_1_872)">
<path d="M105.926 33H4.07407C1.79259 33 0 31.185 0 28.875V4.125C0 1.815 1.79259 0 4.07407 0H105.926C108.207 0 110 1.815 110 4.125V28.875C110 31.185 108.207 33 105.926 33Z"/>
<path d="M105.926 0.66C107.8 0.66 109.348 2.2275 109.348 4.125V28.875C109.348 30.7725 107.8 32.34 105.926 32.34H4.07407C2.2 32.34 0.651852 30.7725 0.651852 28.875V4.125C0.651852 2.2275 2.2 0.66 4.07407 0.66H105.926ZM105.926 0H4.07407C1.79259 0 0 1.8975 0 4.125V28.875C0 31.185 1.79259 33 4.07407 33H105.926C108.207 33 110 31.185 110 28.875V4.125C110 1.8975 108.207 0 105.926 0Z"/>
<path d="M38.6222 8.41488C38.6222 9.07488 38.4592 9.65238 38.0518 10.0649C37.5629 10.5599 36.9925 10.8074 36.2592 10.8074C35.5259 10.8074 34.9555 10.5599 34.4666 10.0649C33.9777 9.56988 33.7333 8.99238 33.7333 8.24988C33.7333 7.50738 33.9777 6.92988 34.4666 6.43488C34.9555 5.93988 35.5259 5.69238 36.2592 5.69238C36.5851 5.69238 36.9111 5.77488 37.237 5.93988C37.5629 6.10488 37.8073 6.26988 37.9703 6.51738L37.5629 6.92988C37.237 6.51738 36.8296 6.35238 36.2592 6.35238C35.7703 6.35238 35.2814 6.51738 34.9555 6.92988C34.5481 7.25988 34.3851 7.75488 34.3851 8.33238C34.3851 8.90988 34.5481 9.40488 34.9555 9.73488C35.3629 10.0649 35.7703 10.3124 36.2592 10.3124C36.8296 10.3124 37.237 10.1474 37.6444 9.73488C37.8888 9.48738 38.0518 9.15738 38.0518 8.74488H36.2592V8.08488H38.6222C38.6222 8.16738 38.6222 8.33238 38.6222 8.41488Z" stroke-width="0.2" stroke-miterlimit="10"/>
<path d="M42.3703 6.3524H40.1703V7.9199H42.2073V8.4974H40.1703V10.0649H42.3703V10.7249H39.5184V5.7749H42.3703V6.3524Z" stroke-width="0.2" stroke-miterlimit="10"/>
<path d="M45.0593 10.7249H44.4074V6.3524H43.0222V5.7749H46.4444V6.3524H45.0593V10.7249Z" stroke-width="0.2" stroke-miterlimit="10"/>
<path d="M48.8074 10.7249V5.7749H49.4592V10.7249H48.8074Z" stroke-width="0.2" stroke-miterlimit="10"/>
<path d="M52.2295 10.7249H51.5777V6.3524H50.1925V5.7749H53.5332V6.3524H52.1481V10.7249H52.2295Z" stroke-width="0.2" stroke-miterlimit="10"/>
<path d="M59.9704 10.0649C59.4815 10.5599 58.9111 10.8074 58.1778 10.8074C57.4444 10.8074 56.8741 10.5599 56.3852 10.0649C55.8963 9.56988 55.6519 8.99238 55.6519 8.24988C55.6519 7.50738 55.8963 6.92988 56.3852 6.43488C56.8741 5.93988 57.4444 5.69238 58.1778 5.69238C58.9111 5.69238 59.4815 5.93988 59.9704 6.43488C60.4593 6.92988 60.7037 7.50738 60.7037 8.24988C60.7037 8.99238 60.4593 9.56988 59.9704 10.0649ZM56.8741 9.65238C57.2 9.98238 57.6889 10.2299 58.1778 10.2299C58.6667 10.2299 59.1556 10.0649 59.4815 9.65238C59.8074 9.32238 60.0519 8.82738 60.0519 8.24988C60.0519 7.67238 59.8889 7.17738 59.4815 6.84738C59.1556 6.51738 58.6667 6.26988 58.1778 6.26988C57.6889 6.26988 57.2 6.43488 56.8741 6.84738C56.5482 7.17738 56.3037 7.67238 56.3037 8.24988C56.3037 8.82738 56.4667 9.32238 56.8741 9.65238Z" stroke-width="0.2" stroke-miterlimit="10"/>
<path d="M61.6 10.7249V5.7749H62.3333L64.6963 9.6524V8.6624V5.7749H65.3481V10.7249H64.6963L62.1704 6.6824V7.6724V10.7249H61.6Z" stroke-width="0.2" stroke-miterlimit="10"/>
<path d="M55.4889 17.9849C53.5333 17.9849 51.9852 19.4699 51.9852 21.5324C51.9852 23.5124 53.5333 25.0799 55.4889 25.0799C57.4444 25.0799 58.9926 23.5949 58.9926 21.5324C58.9926 19.3874 57.4444 17.9849 55.4889 17.9849ZM55.4889 23.5949C54.4296 23.5949 53.5333 22.6874 53.5333 21.4499C53.5333 20.2124 54.4296 19.3049 55.4889 19.3049C56.5482 19.3049 57.4445 20.1299 57.4445 21.4499C57.4445 22.6874 56.5482 23.5949 55.4889 23.5949ZM47.9111 17.9849C45.9556 17.9849 44.4074 19.4699 44.4074 21.5324C44.4074 23.5124 45.9556 25.0799 47.9111 25.0799C49.8667 25.0799 51.4148 23.5949 51.4148 21.5324C51.4148 19.3874 49.8667 17.9849 47.9111 17.9849ZM47.9111 23.5949C46.8519 23.5949 45.9556 22.6874 45.9556 21.4499C45.9556 20.2124 46.8519 19.3049 47.9111 19.3049C48.9704 19.3049 49.8667 20.1299 49.8667 21.4499C49.8667 22.6874 48.9704 23.5949 47.9111 23.5949ZM38.8667 19.0574V20.5424H42.3704C42.2889 21.3674 41.963 22.0274 41.5556 22.4399C41.0667 22.9349 40.2519 23.5124 38.8667 23.5124C36.6667 23.5124 35.037 21.7799 35.037 19.5524C35.037 17.3249 36.7482 15.5924 38.8667 15.5924C40.0074 15.5924 40.9037 16.0874 41.5556 16.6649L42.6148 15.5924C41.7185 14.7674 40.5778 14.1074 38.9482 14.1074C36.0148 14.1074 33.4889 16.5824 33.4889 19.5524C33.4889 22.5224 36.0148 24.9974 38.9482 24.9974C40.5778 24.9974 41.7185 24.5024 42.6963 23.4299C43.6741 22.4399 44 21.0374 44 19.9649C44 19.6349 44 19.3049 43.9185 19.0574H38.8667ZM75.8593 20.2124C75.5333 19.3874 74.7185 17.9849 72.9259 17.9849C71.1333 17.9849 69.6667 19.3874 69.6667 21.5324C69.6667 23.5124 71.1333 25.0799 73.0889 25.0799C74.637 25.0799 75.6148 24.0899 75.9407 23.5124L74.8 22.6874C74.3926 23.2649 73.9037 23.6774 73.0889 23.6774C72.2741 23.6774 71.7852 23.3474 71.3778 22.6049L76.0222 20.6249L75.8593 20.2124ZM71.1333 21.3674C71.1333 20.0474 72.1926 19.3049 72.9259 19.3049C73.4963 19.3049 74.0667 19.6349 74.2296 20.0474L71.1333 21.3674ZM67.3037 24.7499H68.8519V14.4374H67.3037V24.7499ZM64.8593 18.7274C64.4519 18.3149 63.8 17.9024 62.9852 17.9024C61.2741 17.9024 59.6444 19.4699 59.6444 21.4499C59.6444 23.4299 61.1926 24.9149 62.9852 24.9149C63.8 24.9149 64.4519 24.5024 64.7778 24.0899H64.8593V24.5849C64.8593 25.9049 64.1259 26.6474 62.9852 26.6474C62.0889 26.6474 61.437 25.9874 61.2741 25.4099L59.9704 25.9874C60.3778 26.8949 61.3556 28.0499 63.0667 28.0499C64.8593 28.0499 66.3259 26.9774 66.3259 24.4199V18.1499H64.8593V18.7274ZM63.0667 23.5949C62.0074 23.5949 61.1111 22.6874 61.1111 21.4499C61.1111 20.2124 62.0074 19.3049 63.0667 19.3049C64.1259 19.3049 64.9407 20.2124 64.9407 21.4499C64.9407 22.6874 64.1259 23.5949 63.0667 23.5949ZM82.9482 14.4374H79.2815V24.7499H80.8296V20.8724H82.9482C84.6593 20.8724 86.2889 19.6349 86.2889 17.6549C86.2889 15.6749 84.6593 14.4374 82.9482 14.4374ZM83.0296 19.3874H80.8296V15.8399H83.0296C84.1704 15.8399 84.8222 16.8299 84.8222 17.5724C84.7407 18.4799 84.0889 19.3874 83.0296 19.3874ZM92.4 17.9024C91.2593 17.9024 90.1185 18.3974 89.7111 19.4699L91.0963 20.0474C91.4222 19.4699 91.9111 19.3049 92.4815 19.3049C93.2963 19.3049 94.0296 19.7999 94.1111 20.6249V20.7074C93.8667 20.5424 93.2148 20.2949 92.563 20.2949C91.0963 20.2949 89.6296 21.1199 89.6296 22.6049C89.6296 24.0074 90.8519 24.9149 92.1556 24.9149C93.2148 24.9149 93.7037 24.4199 94.1111 23.9249H94.1926V24.7499H95.6593V20.7899C95.4963 18.9749 94.1111 17.9024 92.4 17.9024ZM92.237 23.5949C91.7482 23.5949 91.0148 23.3474 91.0148 22.6874C91.0148 21.8624 91.9111 21.6149 92.6445 21.6149C93.2963 21.6149 93.6222 21.7799 94.0296 21.9449C93.8667 22.9349 93.0519 23.5949 92.237 23.5949ZM100.793 18.1499L99.0815 22.6049H99L97.2074 18.1499H95.5778L98.2667 24.4199L96.7185 27.8849H98.2667L102.422 18.1499H100.793ZM87.1037 24.7499H88.6519V14.4374H87.1037V24.7499Z"/>
<path d="M8.47412 6.1875C8.22967 6.435 8.14819 6.8475 8.14819 7.3425V25.575C8.14819 26.07 8.31116 26.4825 8.5556 26.73L8.63708 26.8125L18.7408 16.5825V16.5V16.4175L8.47412 6.1875Z"/>
<path d="M22 20.0477L18.6593 16.6652V16.5002V16.4177L22 13.0352L22.0815 13.1177L26.0741 15.4277C27.2149 16.0877 27.2149 17.1602 26.0741 17.8202L22 20.0477Z"/>
<path d="M22.0815 19.965L18.6593 16.5L8.47412 26.8125C8.88153 27.225 9.4519 27.225 10.1852 26.895L22.0815 19.965Z"/>
<path d="M22.0815 13.0352L10.1852 6.1877C9.4519 5.7752 8.88153 5.8577 8.47412 6.2702L18.6593 16.5002L22.0815 13.0352Z"/>
<path opacity="0.2" d="M22 19.8823L10.1852 26.6473C9.53338 27.0598 8.96301 26.9773 8.5556 26.6473L8.47412 26.7298L8.5556 26.8123C8.96301 27.1423 9.53338 27.2248 10.1852 26.8123L22 19.8823Z"/>
<path opacity="0.12" d="M8.47412 26.6472C8.22967 26.3997 8.14819 25.9872 8.14819 25.4922V25.5747C8.14819 26.0697 8.31116 26.4822 8.5556 26.7297V26.6472H8.47412Z"/>
<path opacity="0.12" d="M26.0741 17.5725L22 19.8825L22.0815 19.965L26.0741 17.655C26.6444 17.325 26.8889 16.9125 26.8889 16.5C26.8889 16.9125 26.563 17.2425 26.0741 17.5725Z"/>
<path opacity="0.25" d="M10.1852 6.27005L26.0741 15.4276C26.563 15.7576 26.8889 16.0876 26.8889 16.5001C26.8889 16.0876 26.6445 15.6751 26.0741 15.3451L10.1852 6.18755C9.04449 5.52755 8.14819 6.02255 8.14819 7.34255V7.42505C8.14819 6.18755 9.04449 5.61005 10.1852 6.27005Z"/>
</g>
<defs>
<linearGradient id="dpaint0_linear_1_872" x1="17.7627" y1="7.18558" x2="3.91827" y2="20.8591" gradientUnits="userSpaceOnUse">
<stop stop-color="#00A0FF"/>
<stop offset="0.00657445" stop-color="#00A1FF"/>
<stop offset="0.2601" stop-color="#00BEFF"/>
<stop offset="0.5122" stop-color="#00D2FF"/>
<stop offset="0.7604" stop-color="#00DFFF"/>
<stop offset="1" stop-color="#00E3FF"/>
</linearGradient>
<linearGradient id="dpaint1_linear_1_872" x1="27.5687" y1="16.5015" x2="7.85274" y2="16.5015" gradientUnits="userSpaceOnUse">
<stop stop-color="#FFE000"/>
<stop offset="0.4087" stop-color="#FFBD00"/>
<stop offset="0.7754" stop-color="#FFA500"/>
<stop offset="1" stop-color="#FF9C00"/>
</linearGradient>
<linearGradient id="dpaint2_linear_1_872" x1="20.2294" y1="18.3944" x2="1.45522" y2="36.9367" gradientUnits="userSpaceOnUse">
<stop stop-color="#FF3A44"/>
<stop offset="1" stop-color="#C31162"/>
</linearGradient>
<linearGradient id="dpaint3_linear_1_872" x1="5.94591" y1="0.14565" x2="14.3294" y2="8.42557" gradientUnits="userSpaceOnUse">
<stop stop-color="#32A071"/>
<stop offset="0.0685" stop-color="#2DA771"/>
<stop offset="0.4762" stop-color="#15CF74"/>
<stop offset="0.8009" stop-color="#06E775"/>
<stop offset="1" stop-color="#00F076"/>
</linearGradient>
<clipPath id="dclip0_1_872">
<rect width="110" height="33"/>
</clipPath>
</defs>
</symbol><symbol viewBox="0 0 30 30" id="insta" xmlns="http://www.w3.org/2000/svg">
<g clip-path="url(#eclip0_1_805)">
<g clip-path="url(#eclip1_1_805)">
<path d="M26.25 30H3.75C1.65 30 0 28.35 0 26.25V3.75C0 1.65 1.65 0 3.75 0H26.25C28.35 0 30 1.65 30 3.75V26.25C30 28.35 28.35 30 26.25 30Z"/>
<path d="M15 7.95C17.325 7.95 17.55 7.95001 18.45 8.02501C19.275 8.10001 19.725 8.175 20.025 8.325C20.4 8.475 20.7 8.7 21 9C21.3 9.3 21.525 9.59999 21.675 9.97499C21.825 10.275 21.9 10.725 21.975 11.55C22.05 12.45 22.05 12.75 22.05 15C22.05 17.25 22.05 17.55 21.975 18.45C21.9 19.275 21.825 19.725 21.675 20.025C21.525 20.4 21.3 20.7 21 21C20.7 21.3 20.4 21.525 20.025 21.675C19.725 21.825 19.275 21.9 18.45 21.975C17.55 22.05 17.25 22.05 15 22.05C12.75 22.05 12.45 22.05 11.55 21.975C10.725 21.9 10.275 21.825 9.97499 21.675C9.59999 21.525 9.3 21.3 9 21C8.7 20.7 8.47498 20.4 8.32498 20.025C8.17498 19.725 8.10001 19.275 8.02501 18.45C7.95001 17.55 7.94998 17.25 7.94998 15C7.94998 12.75 7.95001 12.45 8.02501 11.55C8.10001 10.725 8.17498 10.275 8.32498 9.97499C8.47498 9.59999 8.7 9.3 9 9C9.3 8.7 9.59999 8.475 9.97499 8.325C10.275 8.175 10.725 8.10001 11.55 8.02501C12.45 7.95001 12.675 7.95 15 7.95ZM15 6.375C12.675 6.375 12.375 6.375 11.475 6.45C10.575 6.525 9.9 6.675 9.375 6.825C8.775 7.05 8.325 7.35 7.875 7.8C7.425 8.25 7.12501 8.775 6.90001 9.3C6.67501 9.825 6.52501 10.5 6.52501 11.4C6.45001 12.3 6.44998 12.6 6.44998 14.925C6.44998 17.25 6.45001 17.55 6.52501 18.45C6.60001 19.35 6.75001 20.025 6.90001 20.55C7.12501 21.15 7.425 21.6 7.875 22.05C8.325 22.5 8.85 22.8 9.375 23.025C9.9 23.25 10.575 23.4 11.475 23.4C12.375 23.475 12.675 23.475 15 23.475C17.325 23.475 17.625 23.475 18.525 23.4C19.425 23.325 20.1 23.175 20.625 23.025C21.225 22.8 21.675 22.5 22.125 22.05C22.575 21.6 22.875 21.075 23.1 20.55C23.325 20.025 23.475 19.35 23.475 18.45C23.55 17.55 23.55 17.25 23.55 14.925C23.55 12.6 23.55 12.3 23.475 11.4C23.4 10.5 23.25 9.825 23.1 9.3C22.875 8.7 22.575 8.25 22.125 7.8C21.675 7.35 21.15 7.05 20.625 6.825C20.1 6.6 19.425 6.45 18.525 6.45C17.625 6.375 17.325 6.375 15 6.375Z"/>
<path d="M15 10.5752C12.525 10.5752 10.575 12.5252 10.575 15.0002C10.575 17.4752 12.525 19.4252 15 19.4252C17.475 19.4252 19.425 17.4752 19.425 15.0002C19.425 12.5252 17.475 10.5752 15 10.5752ZM15 17.8502C13.425 17.8502 12.15 16.5752 12.15 15.0002C12.15 13.4252 13.425 12.1502 15 12.1502C16.575 12.1502 17.85 13.4252 17.85 15.0002C17.85 16.5752 16.575 17.8502 15 17.8502Z"/>
<path d="M19.575 11.475C20.1549 11.475 20.625 11.0049 20.625 10.425C20.625 9.8451 20.1549 9.375 19.575 9.375C18.9951 9.375 18.525 9.8451 18.525 10.425C18.525 11.0049 18.9951 11.475 19.575 11.475Z"/>
</g>
<g clip-path="url(#eclip2_1_805)">
<path d="M26.25 30H3.75C1.65 30 0 28.35 0 26.25V3.75C0 1.65 1.65 0 3.75 0H26.25C28.35 0 30 1.65 30 3.75V26.25C30 28.35 28.35 30 26.25 30Z"/>
<path d="M15 7.95C17.325 7.95 17.55 7.95001 18.45 8.02501C19.275 8.10001 19.725 8.175 20.025 8.325C20.4 8.475 20.7 8.7 21 9C21.3 9.3 21.525 9.59999 21.675 9.97499C21.825 10.275 21.9 10.725 21.975 11.55C22.05 12.45 22.05 12.75 22.05 15C22.05 17.25 22.05 17.55 21.975 18.45C21.9 19.275 21.825 19.725 21.675 20.025C21.525 20.4 21.3 20.7 21 21C20.7 21.3 20.4 21.525 20.025 21.675C19.725 21.825 19.275 21.9 18.45 21.975C17.55 22.05 17.25 22.05 15 22.05C12.75 22.05 12.45 22.05 11.55 21.975C10.725 21.9 10.275 21.825 9.97499 21.675C9.59999 21.525 9.3 21.3 9 21C8.7 20.7 8.47498 20.4 8.32498 20.025C8.17498 19.725 8.10001 19.275 8.02501 18.45C7.95001 17.55 7.94998 17.25 7.94998 15C7.94998 12.75 7.95001 12.45 8.02501 11.55C8.10001 10.725 8.17498 10.275 8.32498 9.97499C8.47498 9.59999 8.7 9.3 9 9C9.3 8.7 9.59999 8.475 9.97499 8.325C10.275 8.175 10.725 8.10001 11.55 8.02501C12.45 7.95001 12.675 7.95 15 7.95ZM15 6.375C12.675 6.375 12.375 6.375 11.475 6.45C10.575 6.525 9.9 6.675 9.375 6.825C8.775 7.05 8.325 7.35 7.875 7.8C7.425 8.25 7.12501 8.775 6.90001 9.3C6.67501 9.825 6.52501 10.5 6.52501 11.4C6.45001 12.3 6.44998 12.6 6.44998 14.925C6.44998 17.25 6.45001 17.55 6.52501 18.45C6.60001 19.35 6.75001 20.025 6.90001 20.55C7.12501 21.15 7.425 21.6 7.875 22.05C8.325 22.5 8.85 22.8 9.375 23.025C9.9 23.25 10.575 23.4 11.475 23.4C12.375 23.475 12.675 23.475 15 23.475C17.325 23.475 17.625 23.475 18.525 23.4C19.425 23.325 20.1 23.175 20.625 23.025C21.225 22.8 21.675 22.5 22.125 22.05C22.575 21.6 22.875 21.075 23.1 20.55C23.325 20.025 23.475 19.35 23.475 18.45C23.55 17.55 23.55 17.25 23.55 14.925C23.55 12.6 23.55 12.3 23.475 11.4C23.4 10.5 23.25 9.825 23.1 9.3C22.875 8.7 22.575 8.25 22.125 7.8C21.675 7.35 21.15 7.05 20.625 6.825C20.1 6.6 19.425 6.45 18.525 6.45C17.625 6.375 17.325 6.375 15 6.375Z"/>
<path d="M15 10.5752C12.525 10.5752 10.575 12.5252 10.575 15.0002C10.575 17.4752 12.525 19.4252 15 19.4252C17.475 19.4252 19.425 17.4752 19.425 15.0002C19.425 12.5252 17.475 10.5752 15 10.5752ZM15 17.8502C13.425 17.8502 12.15 16.5752 12.15 15.0002C12.15 13.4252 13.425 12.1502 15 12.1502C16.575 12.1502 17.85 13.4252 17.85 15.0002C17.85 16.5752 16.575 17.8502 15 17.8502Z"/>
<path d="M19.575 11.475C20.1549 11.475 20.625 11.0049 20.625 10.425C20.625 9.8451 20.1549 9.375 19.575 9.375C18.9951 9.375 18.525 9.8451 18.525 10.425C18.525 11.0049 18.9951 11.475 19.575 11.475Z"/>
</g>
</g>
<defs>
<clipPath id="eclip0_1_805">
<rect width="30" height="30"/>
</clipPath>
<clipPath id="eclip1_1_805">
<rect width="30" height="30"/>
</clipPath>
<clipPath id="eclip2_1_805">
<rect width="30" height="30"/>
</clipPath>
</defs>
</symbol><symbol viewBox="0 0 30 30" id="linkedin" xmlns="http://www.w3.org/2000/svg">
<g clip-path="url(#fclip0_1_791)">
<g clip-path="url(#fclip1_1_791)">
<path d="M26.25 30H3.75C1.65 30 0 28.35 0 26.25V3.75C0 1.65 1.65 0 3.75 0H26.25C28.35 0 30 1.65 30 3.75V26.25C30 28.35 28.35 30 26.25 30Z"/>
<path d="M8.475 12.75H11.25V21.75H8.475V12.75ZM9.9 8.25C10.8 8.25 11.55 9 11.55 9.9C11.55 10.8 10.8 11.55 9.9 11.55C9 11.55 8.25 10.8 8.25 9.9C8.25 9 9 8.25 9.9 8.25Z"/>
<path d="M13.05 12.7499H15.75V13.9499C16.125 13.2749 17.025 12.5249 18.375 12.5249C21.225 12.5249 21.75 14.3999 21.75 16.7999V21.7499H18.975V17.3999C18.975 16.3499 18.975 14.9999 17.55 14.9999C16.125 14.9999 15.9 16.1249 15.9 17.3249V21.7499H13.125V12.7499H13.05Z"/>
</g>
<g clip-path="url(#fclip2_1_791)">
<path d="M26.25 30H3.75C1.65 30 0 28.35 0 26.25V3.75C0 1.65 1.65 0 3.75 0H26.25C28.35 0 30 1.65 30 3.75V26.25C30 28.35 28.35 30 26.25 30Z"/>
<path d="M8.475 12.75H11.25V21.75H8.475V12.75ZM9.9 8.25C10.8 8.25 11.55 9 11.55 9.9C11.55 10.8 10.8 11.55 9.9 11.55C9 11.55 8.25 10.8 8.25 9.9C8.25 9 9 8.25 9.9 8.25Z"/>
<path d="M13.05 12.7499H15.75V13.9499C16.125 13.2749 17.025 12.5249 18.375 12.5249C21.225 12.5249 21.75 14.3999 21.75 16.7999V21.7499H18.975V17.3999C18.975 16.3499 18.975 14.9999 17.55 14.9999C16.125 14.9999 15.9 16.1249 15.9 17.3249V21.7499H13.125V12.7499H13.05Z"/>
</g>
</g>
<defs>
<clipPath id="fclip0_1_791">
<rect width="30" height="30"/>
</clipPath>
<clipPath id="fclip1_1_791">
<rect width="30" height="30"/>
</clipPath>
<clipPath id="fclip2_1_791">
<rect width="30" height="30"/>
</clipPath>
</defs>
</symbol><symbol viewBox="0 0 30 30" id="twitter" xmlns="http://www.w3.org/2000/svg">
<g clip-path="url(#gclip0_1_775)">
<path d="M26.25 30H3.75C1.65 30 0 28.35 0 26.25V3.75C0 1.65 1.65 0 3.75 0H26.25C28.35 0 30 1.65 30 3.75V26.25C30 28.35 28.35 30 26.25 30Z"/>
<path d="M22.875 10.1248C22.275 10.3498 21.675 10.5748 21 10.6498C21.675 10.2748 22.2 9.59981 22.425 8.84981C21.825 9.22481 21.075 9.52481 20.4 9.59981C19.8 8.99981 18.975 8.5498 18.075 8.5498C16.275 8.5498 14.85 9.9748 14.85 11.7748C14.85 11.9998 14.85 12.2998 14.925 12.5248C12.225 12.3748 9.825 11.0998 8.25 9.1498C7.95 9.5998 7.8 10.1998 7.8 10.7998C7.8 11.9248 8.4 12.8998 9.225 13.4998C8.7 13.4998 8.175 13.3498 7.725 13.1248C7.725 13.1248 7.725 13.1248 7.725 13.1998C7.725 14.7748 8.85 16.0498 10.35 16.3498C10.05 16.4248 9.825 16.4998 9.525 16.4998C9.3 16.4998 9.15 16.4998 8.925 16.4248C9.3 17.6998 10.5 18.6748 11.925 18.6748C10.8 19.5748 9.45 20.0248 7.875 20.0248C7.65 20.0248 7.35 20.0248 7.125 19.9498C8.55 20.8498 10.275 21.3748 12.075 21.3748C18 21.3748 21.3 16.4248 21.3 12.1498C21.3 11.9998 21.3 11.8498 21.3 11.6998C21.9 11.3248 22.425 10.7998 22.875 10.1248Z"/>
</g>
<defs>
<clipPath id="gclip0_1_775">
<rect width="30" height="30"/>
</clipPath>
</defs>
</symbol><symbol viewBox="0 0 30 30" id="youtube" xmlns="http://www.w3.org/2000/svg">
<g clip-path="url(#hclip0_1_819)">
<g clip-path="url(#hclip1_1_819)">
<path d="M26.25 30H3.75C1.65 30 0 28.35 0 26.25V3.75C0 1.65 1.65 0 3.75 0H26.25C28.35 0 30 1.65 30 3.75V26.25C30 28.35 28.35 30 26.25 30Z"/>
<path d="M24.225 11.2502C24.225 11.2502 24.075 9.97519 23.475 9.37519C22.725 8.62519 21.975 8.62519 21.6 8.55019C18.975 8.32519 15.075 8.3252 15.075 8.3252C15.075 8.3252 11.175 8.32519 8.55003 8.55019C8.17503 8.62519 7.35003 8.62519 6.67503 9.37519C6.15003 9.97519 5.92503 11.2502 5.92503 11.2502C5.92503 11.2502 5.77502 12.7502 5.77502 14.2502V15.6752C5.77502 17.1752 5.92503 18.6752 5.92503 18.6752C5.92503 18.6752 6.07503 19.9502 6.67503 20.5502C7.42503 21.3002 8.32502 21.3002 8.77502 21.3752C10.275 21.5252 15.15 21.6002 15.15 21.6002C15.15 21.6002 19.125 21.6002 21.75 21.3752C22.125 21.3002 22.95 21.3002 23.625 20.5502C24.15 19.9502 24.375 18.6752 24.375 18.6752C24.375 18.6752 24.525 17.1752 24.525 15.6752V14.2502C24.375 12.7502 24.225 11.2502 24.225 11.2502ZM13.05 17.4002V12.1502L18.15 14.7752L13.05 17.4002Z"/>
<path d="M13.05 17.4004L18.15 14.7754L13.05 12.1504V17.4004Z"/>
<path opacity="0.12" d="M13.05 12.1504L17.475 15.1504L18.075 14.8504L13.05 12.1504Z"/>
</g>
<g clip-path="url(#hclip2_1_819)">
<path d="M26.25 30H3.75C1.65 30 0 28.35 0 26.25V3.75C0 1.65 1.65 0 3.75 0H26.25C28.35 0 30 1.65 30 3.75V26.25C30 28.35 28.35 30 26.25 30Z"/>
<path d="M24.225 11.2502C24.225 11.2502 24.075 9.97519 23.475 9.37519C22.725 8.62519 21.975 8.62519 21.6 8.55019C18.975 8.32519 15.075 8.3252 15.075 8.3252C15.075 8.3252 11.175 8.32519 8.55003 8.55019C8.17503 8.62519 7.35003 8.62519 6.67503 9.37519C6.15003 9.97519 5.92503 11.2502 5.92503 11.2502C5.92503 11.2502 5.77502 12.7502 5.77502 14.2502V15.6752C5.77502 17.1752 5.92503 18.6752 5.92503 18.6752C5.92503 18.6752 6.07503 19.9502 6.67503 20.5502C7.42503 21.3002 8.32502 21.3002 8.77502 21.3752C10.275 21.5252 15.15 21.6002 15.15 21.6002C15.15 21.6002 19.125 21.6002 21.75 21.3752C22.125 21.3002 22.95 21.3002 23.625 20.5502C24.15 19.9502 24.375 18.6752 24.375 18.6752C24.375 18.6752 24.525 17.1752 24.525 15.6752V14.2502C24.375 12.7502 24.225 11.2502 24.225 11.2502ZM13.05 17.4002V12.1502L18.15 14.7752L13.05 17.4002Z"/>
<path d="M13.05 17.4004L18.15 14.7754L13.05 12.1504V17.4004Z"/>
<path opacity="0.12" d="M13.05 12.1504L17.475 15.1504L18.075 14.8504L13.05 12.1504Z"/>
</g>
</g>
<defs>
<clipPath id="hclip0_1_819">
<rect width="30" height="30"/>
</clipPath>
<clipPath id="hclip1_1_819">
<rect width="30" height="30"/>
</clipPath>
<clipPath id="hclip2_1_819">
<rect width="30" height="30"/>
</clipPath>
</defs>
</symbol></svg>