<svg width="204" height="181" viewBox="0 0 204 181" fill="none" xmlns="http://www.w3.org/2000/svg">
<g clip-path="url(#clip0_1_653)">
<path d="M187.117 0H16.8828C7.55867 0 0 7.56761 0 16.9027V164.097C0 173.432 7.55867 181 16.8828 181H187.117C196.441 181 204 173.432 204 164.097V16.9027C204 7.56761 196.441 0 187.117 0Z" fill="white"/>
<path d="M15.5273 30.9882V19.9274H17.3334V29.4373H22.0109V30.9882H15.5273ZM25.502 30.9882H23.7262V22.6207H25.502V30.9882ZM23.6204 20.4041C23.6204 20.0863 23.7061 19.8417 23.8774 19.6702C24.0537 19.4987 24.3031 19.413 24.6255 19.413C24.9378 19.413 25.1796 19.4987 25.3509 19.6702C25.5272 19.8417 25.6154 20.0863 25.6154 20.4041C25.6154 20.7067 25.5272 20.9462 25.3509 21.1228C25.1796 21.2943 24.9378 21.38 24.6255 21.38C24.3031 21.38 24.0537 21.2943 23.8774 21.1228C23.7061 20.9462 23.6204 20.7067 23.6204 20.4041ZM29.7639 26.57L30.769 25.3141L33.2929 22.6207H35.3407L31.978 26.2144L35.5523 30.9882H33.4667L30.7841 27.3189L29.8093 28.1209V30.9882H28.0486V19.2163H29.8093V24.9585L29.7186 26.57H29.7639ZM40.5548 31.1395C39.255 31.1395 38.2374 30.7612 37.5019 30.0047C36.7714 29.2431 36.4062 28.1965 36.4062 26.865C36.4062 25.4982 36.7462 24.4239 37.4263 23.6421C38.1064 22.8603 39.0409 22.4694 40.2298 22.4694C41.3331 22.4694 42.2046 22.8048 42.8444 23.4757C43.4842 24.1465 43.8041 25.0694 43.8041 26.2446V27.2054H38.2349C38.26 28.0175 38.4792 28.6429 38.8923 29.0817C39.3054 29.5155 39.8873 29.7323 40.6378 29.7323C41.1316 29.7323 41.59 29.6869 42.0132 29.5961C42.4413 29.5003 42.8998 29.344 43.3885 29.1271V30.5721C42.9552 30.7789 42.517 30.9252 42.0736 31.0109C41.6303 31.0967 41.124 31.1395 40.5548 31.1395ZM40.2298 23.8161C39.6656 23.8161 39.2122 23.9951 38.8697 24.3533C38.5321 24.7114 38.3306 25.2334 38.2651 25.9193H42.0585C42.0484 25.2283 41.8822 24.7063 41.5598 24.3533C41.2373 23.9951 40.794 23.8161 40.2298 23.8161ZM51.4362 28.6051C51.4362 29.4222 51.139 30.0501 50.5445 30.4889C49.9501 30.9226 49.0987 31.1395 47.9904 31.1395C46.8771 31.1395 45.9829 30.9705 45.3078 30.6326V29.0969C46.2902 29.5508 47.2045 29.7777 48.0509 29.7777C49.1441 29.7777 49.6907 29.4474 49.6907 28.7866C49.6907 28.5748 49.6302 28.3983 49.5093 28.2571C49.3884 28.1158 49.1894 27.9696 48.9123 27.8182C48.6352 27.667 48.2499 27.4955 47.7562 27.3038C46.7939 26.9306 46.1416 26.5574 45.799 26.1841C45.4615 25.8109 45.2927 25.3267 45.2927 24.7315C45.2927 24.0153 45.5798 23.4605 46.1541 23.0671C46.7335 22.6687 47.5194 22.4694 48.5118 22.4694C49.4942 22.4694 50.4237 22.6687 51.3002 23.0671L50.7259 24.4062C49.8242 24.033 49.066 23.8464 48.4514 23.8464C47.5143 23.8464 47.0458 24.1137 47.0458 24.6483C47.0458 24.9106 47.1668 25.1325 47.4085 25.3141C47.6554 25.4957 48.1894 25.7453 49.0106 26.063C49.7007 26.3304 50.202 26.575 50.5143 26.7969C50.8267 27.0188 51.0584 27.2761 51.2095 27.5686C51.3606 27.8561 51.4362 28.2016 51.4362 28.6051Z" fill="#CCCCCC"/>
<path d="M74.7625 70.9916C74.7625 68.5876 74.3312 66.8598 73.4681 65.8081C72.605 64.7564 71.1608 64.2305 69.1349 64.2305C68.3095 64.2305 67.5591 64.3244 66.8838 64.5123C66.2085 64.7 65.627 65.0381 65.1393 65.5264C64.6516 66.0147 64.2764 66.6533 64.0138 67.4421C63.7512 68.2309 63.6198 69.245 63.6198 70.4846V71.1607C63.6198 73.4144 64.0138 75.0673 64.8016 76.1188C65.627 77.1703 66.9964 77.6964 68.9098 77.6964C69.7351 77.6964 70.5045 77.6027 71.2171 77.4147C71.9297 77.2266 72.5487 76.9076 73.0742 76.4568C73.5997 76.0061 74.0119 75.4237 74.3123 74.7102C74.6126 73.9968 74.7625 73.1136 74.7625 72.0621V70.9916ZM65.4207 91.0495C68.7222 91.0495 71.0855 90.2607 72.5114 88.6831C73.9746 87.1056 74.7625 84.5511 74.875 81.0206C73.8248 82.0347 72.605 82.7672 71.2171 83.2179C69.8665 83.6313 68.3845 83.8377 66.7713 83.8377C64.7828 83.8377 63.0759 83.556 61.6502 82.9926C60.2621 82.3918 59.1178 81.565 58.2174 80.5135C57.3169 79.424 56.6416 78.1281 56.1914 76.6259C55.7787 75.0856 55.5724 73.358 55.5724 71.4424V70.7663C55.5724 68.7755 55.8163 66.9725 56.304 65.3574C56.8292 63.7422 57.6358 62.3712 58.7238 61.2444C59.8494 60.1175 61.2563 59.2536 62.9445 58.6526C64.6703 58.0141 66.7338 57.6948 69.1349 57.6948C71.9487 57.6948 74.256 58.108 76.0568 58.9344C77.8576 59.7232 79.2645 60.8124 80.2775 62.2022C81.2905 63.5544 81.9848 65.132 82.3597 66.935C82.7346 68.7379 82.9225 70.6536 82.9225 72.6819V78.5415C82.9225 81.5467 82.6038 84.2511 81.9658 86.6548C81.3657 89.0212 80.39 91.0305 79.0394 92.6835C77.7261 94.3364 76.0005 95.5942 73.862 96.4584C71.7608 97.3226 69.2286 97.7543 66.2648 97.7543C64.464 97.7543 62.8132 97.6043 61.3125 97.3035C59.8494 97.0408 58.4612 96.7028 57.1481 96.2894L58.7238 90.0354C59.9994 90.4107 61.1812 90.6742 62.2692 90.8242C63.3572 90.9742 64.4077 91.0495 65.4207 91.0495Z" fill="#35363A"/>
<path d="M106.048 65.4697H88.2652L89.1656 58.5396H114.602V64.1174L102.278 97.1904H93.6677L106.048 65.4697Z" fill="#35363A"/>
<path d="M129.681 84.7955C129.681 87.1619 130.112 88.8712 130.975 89.9227C131.838 90.9742 133.282 91.5003 135.308 91.5003C136.133 91.5003 136.884 91.4066 137.559 91.2186C138.235 91.0305 138.816 90.6925 139.304 90.2044C139.791 89.7164 140.167 89.0776 140.429 88.2888C140.692 87.5 140.823 86.4858 140.823 85.2463V84.6265C140.823 82.3728 140.41 80.7199 139.585 79.6684C138.797 78.6169 137.447 78.0908 135.533 78.0908C134.746 78.0908 133.995 78.1845 133.282 78.3725C132.607 78.5606 131.988 78.8796 131.425 79.3303C130.9 79.7437 130.469 80.3072 130.131 81.0206C129.831 81.734 129.681 82.6355 129.681 83.725V84.7955ZM138.854 64.6813C137.39 64.6813 136.096 64.8503 134.971 65.1884C133.845 65.4888 132.888 66.0335 132.101 66.8223C131.313 67.5735 130.694 68.6065 130.243 69.9212C129.831 71.198 129.605 72.8136 129.568 74.7666C130.431 73.9025 131.519 73.2263 132.832 72.7383C134.183 72.2122 135.796 71.9495 137.672 71.9495C139.735 71.9495 141.48 72.2502 142.906 72.851C144.331 73.4517 145.475 74.2968 146.338 75.3864C147.239 76.4759 147.877 77.7901 148.252 79.3303C148.665 80.8326 148.871 82.5045 148.871 84.3448V85.0209C148.871 86.9739 148.627 88.7585 148.139 90.3735C147.652 91.951 146.864 93.3223 145.776 94.4864C144.687 95.6133 143.28 96.4958 141.555 97.1345C139.829 97.7353 137.747 98.036 135.308 98.036C132.532 98.036 130.243 97.6416 128.443 96.8528C126.679 96.064 125.272 94.9935 124.222 93.6413C123.209 92.2891 122.496 90.7115 122.083 88.9085C121.709 87.0683 121.521 85.1146 121.521 83.0489V77.1893C121.521 73.7715 121.877 70.86 122.59 68.4562C123.341 66.0147 124.41 64.0239 125.798 62.484C127.224 60.9439 128.949 59.8171 130.975 59.1034C133.038 58.3522 135.384 57.9766 138.01 57.9766C139.773 57.9766 141.405 58.1268 142.906 58.4273C144.406 58.6902 145.776 59.0283 147.014 59.4415L145.438 65.6955C144.2 65.3199 143.037 65.0569 141.949 64.9067C140.861 64.7565 139.829 64.6813 138.854 64.6813Z" fill="#35363A"/>
<path d="M92.6413 117.153L92.8777 115.835H94.8023C95.185 115.835 95.5001 115.789 95.7477 115.699C95.9953 115.598 96.1867 115.463 96.3217 115.294C96.4681 115.125 96.5694 114.933 96.6256 114.719C96.6819 114.505 96.71 114.28 96.71 114.043C96.71 112.826 95.9053 112.217 94.2958 112.217C93.8118 112.217 93.3054 112.268 92.7764 112.37C92.2586 112.46 91.7353 112.601 91.2063 112.792L91.4257 111.406C91.8197 111.248 92.2811 111.113 92.8101 111C93.3391 110.876 93.8794 110.814 94.4309 110.814C95.7252 110.814 96.6988 111.085 97.3516 111.626C98.0156 112.155 98.3477 112.877 98.3477 113.789V113.992C98.3477 115.187 97.8131 116.004 96.7438 116.443C97.3628 116.668 97.8074 117.035 98.0775 117.542C98.3477 118.038 98.4827 118.601 98.4827 119.232V119.435C98.4827 119.908 98.3983 120.348 98.2295 120.753C98.0607 121.159 97.8018 121.508 97.4529 121.801C97.104 122.083 96.665 122.308 96.136 122.477C95.607 122.635 94.9824 122.714 94.262 122.714C93.688 122.714 93.0859 122.658 92.4556 122.545C91.8366 122.444 91.3132 122.303 90.8855 122.122L91.1725 120.821C91.6452 120.99 92.1348 121.119 92.6413 121.21C93.1478 121.289 93.6486 121.328 94.1439 121.328C95.033 121.328 95.7027 121.165 96.1529 120.838C96.6144 120.511 96.8451 119.976 96.8451 119.232C96.8451 118.939 96.8113 118.669 96.7438 118.421C96.6763 118.162 96.5581 117.942 96.3893 117.761C96.2204 117.57 95.9897 117.423 95.6971 117.322C95.4157 117.209 95.0612 117.153 94.6335 117.153H92.6413Z" fill="#34D08C"/>
<path d="M102.179 122.663C101.808 122.663 101.538 122.573 101.369 122.393C101.2 122.201 101.116 121.942 101.116 121.615C101.116 121.277 101.2 121.018 101.369 120.838C101.538 120.646 101.808 120.55 102.179 120.55C102.551 120.55 102.821 120.646 102.99 120.838C103.159 121.018 103.243 121.277 103.243 121.615C103.243 121.942 103.159 122.201 102.99 122.393C102.821 122.573 102.551 122.663 102.179 122.663Z" fill="#34D08C"/>
<path d="M111.104 112.369H105.431L105.634 110.983H112.86V112.133L108.892 122.545H107.153L111.104 112.369Z" fill="#34D08C"/>
<path d="M124.524 111H126.095L119.308 122.545H117.754L124.524 111ZM126.162 121.463C126.635 121.463 126.978 121.316 127.192 121.023C127.406 120.73 127.513 120.212 127.513 119.468V118.978C127.513 118.201 127.406 117.671 127.192 117.389C126.978 117.107 126.64 116.967 126.179 116.967C125.695 116.967 125.346 117.107 125.132 117.389C124.918 117.671 124.811 118.201 124.811 118.978V119.468C124.811 120.212 124.918 120.73 125.132 121.023C125.346 121.316 125.689 121.463 126.162 121.463ZM126.179 115.783C126.697 115.783 127.13 115.862 127.479 116.02C127.839 116.167 128.126 116.381 128.34 116.662C128.554 116.933 128.706 117.265 128.796 117.66C128.886 118.043 128.931 118.465 128.931 118.927V119.519C128.931 119.97 128.88 120.392 128.779 120.787C128.689 121.17 128.537 121.502 128.323 121.784C128.109 122.066 127.822 122.285 127.462 122.443C127.113 122.601 126.68 122.68 126.162 122.68C125.633 122.68 125.188 122.601 124.828 122.443C124.479 122.285 124.192 122.066 123.967 121.784C123.753 121.502 123.602 121.17 123.511 120.787C123.421 120.404 123.376 119.981 123.376 119.519V118.927C123.376 118.465 123.421 118.043 123.511 117.66C123.613 117.277 123.77 116.944 123.984 116.662C124.209 116.381 124.496 116.167 124.845 116.02C125.205 115.862 125.65 115.783 126.179 115.783ZM117.738 116.544C118.21 116.544 118.554 116.398 118.767 116.105C118.981 115.812 119.088 115.293 119.088 114.55V114.059C119.088 113.282 118.981 112.752 118.767 112.471C118.554 112.189 118.216 112.048 117.754 112.048C117.27 112.048 116.922 112.189 116.708 112.471C116.494 112.752 116.387 113.282 116.387 114.059V114.55C116.387 115.293 116.494 115.812 116.708 116.105C116.922 116.398 117.265 116.544 117.738 116.544ZM117.754 110.865C118.272 110.865 118.706 110.944 119.054 111.101C119.415 111.248 119.702 111.462 119.915 111.744C120.129 112.014 120.281 112.347 120.371 112.741C120.461 113.124 120.506 113.547 120.506 114.009V114.6C120.506 115.051 120.456 115.474 120.354 115.868C120.264 116.251 120.112 116.584 119.899 116.865C119.685 117.147 119.398 117.367 119.038 117.524C118.689 117.682 118.255 117.761 117.738 117.761C117.209 117.761 116.764 117.682 116.404 117.524C116.055 117.367 115.768 117.147 115.543 116.865C115.329 116.584 115.177 116.251 115.087 115.868C114.997 115.485 114.952 115.062 114.952 114.6V114.009C114.952 113.547 114.997 113.124 115.087 112.741C115.188 112.358 115.346 112.025 115.56 111.744C115.785 111.462 116.072 111.248 116.421 111.101C116.781 110.944 117.225 110.865 117.754 110.865Z" fill="#34D08C"/>
<path d="M80.5448 109.868L75.269 114.938L76.1919 115.826L79.8857 112.276V122.545H81.2047V112.276L84.8978 115.826L85.8207 114.938L80.5448 109.868Z" fill="#34D08C"/>
<path d="M57.6827 132.951H58.7365L60.1842 137.082L61.6417 132.951H62.666L60.6668 138.039H59.6721L57.6827 132.951Z" fill="#61636C"/>
<path d="M65.7963 135.081C66.0523 135.114 66.2657 135.173 66.4364 135.258C66.6137 135.344 66.7548 135.449 66.8599 135.574C66.965 135.699 67.0404 135.84 67.0864 135.998C67.1324 136.156 67.1553 136.323 67.1553 136.501V136.58C67.1553 136.875 67.0962 137.125 66.9781 137.329C66.8665 137.526 66.7122 137.684 66.5152 137.802C66.3182 137.921 66.0885 138.006 65.8258 138.059C65.5698 138.111 65.2973 138.137 65.0084 138.137C64.713 138.137 64.4175 138.114 64.1221 138.068C63.8266 138.023 63.541 137.956 63.2653 137.871L63.4327 137.151C63.715 137.23 63.9776 137.29 64.2205 137.329C64.4635 137.362 64.7228 137.378 64.9986 137.378C65.4122 137.378 65.7175 137.325 65.9144 137.22C66.1114 137.109 66.2099 136.905 66.2099 136.609C66.2099 136.366 66.1508 136.199 66.0326 136.106C65.9211 136.008 65.7438 135.942 65.5008 135.909L64.772 135.811C64.2599 135.745 63.8857 135.597 63.6493 135.367C63.4196 135.13 63.3047 134.815 63.3047 134.42V134.341C63.3047 134.085 63.3572 133.865 63.4622 133.681C63.5673 133.49 63.715 133.336 63.9054 133.217C64.0958 133.093 64.3223 133 64.5849 132.941C64.8541 132.882 65.1496 132.853 65.4713 132.853C65.8061 132.853 66.1049 132.879 66.3675 132.931C66.6367 132.977 66.8566 133.03 67.0273 133.089L66.85 133.809C66.6268 133.736 66.4069 133.684 66.1902 133.651C65.9801 133.618 65.7372 133.602 65.4614 133.602C65.0216 133.602 64.7031 133.661 64.5061 133.779C64.3092 133.891 64.2107 134.072 64.2107 134.322C64.2107 134.539 64.2665 134.693 64.3781 134.785C64.4897 134.877 64.6933 134.943 64.9887 134.982L65.7963 135.081Z" fill="#61636C"/>
<path d="M74.3087 135.357C74.3087 134.713 74.2074 134.263 74.0034 134.006C73.8065 133.744 73.4885 133.612 73.0482 133.612C72.6148 133.612 72.2898 133.727 72.0732 133.957C71.8565 134.18 71.7482 134.565 71.7482 135.111V137.063C71.9255 137.162 72.1027 137.237 72.28 137.29C72.4643 137.343 72.6739 137.369 72.9103 137.369C73.4224 137.369 73.784 137.231 73.9936 136.954C74.2039 136.678 74.3087 136.248 74.3087 135.663V135.357ZM75.2837 135.683C75.2837 136.497 75.0938 137.112 74.7125 137.526C74.332 137.934 73.8037 138.138 73.127 138.138C72.8646 138.138 72.6247 138.108 72.408 138.049C72.1984 137.99 71.9782 137.895 71.7482 137.763V140.327H70.7929V132.951H71.6202L71.699 133.553C72.0408 133.073 72.5853 132.833 73.3338 132.833C73.6426 132.833 73.9183 132.879 74.161 132.971C74.4044 133.063 74.6077 133.208 74.7716 133.405C74.9426 133.602 75.0706 133.858 75.1557 134.174C75.2415 134.483 75.2837 134.858 75.2837 135.298V135.683Z" fill="#61636C"/>
<path d="M79.4875 133.78C79.4024 133.76 79.3039 133.744 79.1921 133.73C79.0873 133.711 78.9818 133.701 78.8769 133.701C78.6863 133.701 78.509 133.727 78.3451 133.78C78.1876 133.825 78.0497 133.908 77.9315 134.026C77.8133 134.144 77.7212 134.306 77.6558 134.509C77.5903 134.713 77.5573 134.966 77.5573 135.268V138.039H76.602V132.951H77.4292L77.508 133.632C77.6719 133.382 77.8759 133.194 78.1186 133.07C78.3684 132.945 78.6701 132.882 79.0247 132.882C79.2744 132.882 79.4875 132.915 79.6648 132.981L79.4875 133.78Z" fill="#61636C"/>
<path d="M81.1216 135.801C81.128 136.097 81.1575 136.347 81.2103 136.55C81.2694 136.747 81.3643 136.911 81.4959 137.043C81.6267 137.168 81.804 137.26 82.0277 137.319C82.2507 137.372 82.5363 137.398 82.8845 137.398C83.1602 137.398 83.4093 137.382 83.633 137.349C83.8623 137.316 84.0529 137.283 84.2042 137.25L84.0761 137.96C83.9115 138.019 83.692 138.065 83.4163 138.098C83.1405 138.138 82.8711 138.157 82.6087 138.157C82.1487 138.157 81.7618 138.105 81.4466 138C81.1378 137.888 80.8881 137.73 80.6982 137.526C80.5139 137.316 80.3795 137.059 80.2944 136.757C80.2156 136.448 80.1762 136.097 80.1762 135.702V135.298C80.1762 134.93 80.2184 134.594 80.3042 134.292C80.3894 133.99 80.5209 133.73 80.6982 133.513C80.8818 133.296 81.1146 133.129 81.3974 133.01C81.6858 132.892 82.0277 132.833 82.4216 132.833C82.8022 132.833 83.1208 132.889 83.3769 133.001C83.6393 133.113 83.8496 133.263 84.0072 133.454C84.1711 133.638 84.2893 133.855 84.3617 134.105C84.4335 134.355 84.4701 134.618 84.4701 134.894V135.249C84.4701 135.479 84.4335 135.63 84.3617 135.702C84.2956 135.768 84.1577 135.801 83.9481 135.801H81.1216ZM82.3822 133.563C81.9489 133.563 81.6302 133.684 81.4269 133.927C81.2229 134.164 81.1181 134.562 81.1118 135.121H83.564V134.864C83.564 134.444 83.4754 134.121 83.2981 133.898C83.1208 133.675 82.8155 133.563 82.3822 133.563Z" fill="#61636C"/>
<path d="M85.1404 132.951H86.1942L87.6419 137.082L89.0995 132.951H90.1237L88.1245 138.039H87.1298L85.1404 132.951Z" fill="#61636C"/>
<path d="M91.5876 130.94C91.9949 130.94 92.1982 131.131 92.1982 131.512C92.1982 131.893 91.9949 132.084 91.5876 132.084C91.1803 132.084 90.977 131.893 90.977 131.512C90.977 131.131 91.1803 130.94 91.5876 130.94ZM91.1149 132.951H92.0702V138.039H91.1149V132.951Z" fill="#61636C"/>
<path d="M95.6851 132.833C96.1382 132.833 96.5124 132.896 96.8079 133.02C97.1033 133.139 97.3362 133.306 97.5071 133.523C97.6844 133.74 97.8053 133.996 97.8715 134.292C97.9432 134.588 97.9798 134.91 97.9798 135.259V135.722C97.9798 136.077 97.9404 136.402 97.8616 136.698C97.7892 136.994 97.6647 137.25 97.4874 137.467C97.3101 137.684 97.0738 137.855 96.7783 137.98C96.4829 138.098 96.1185 138.157 95.6851 138.157C95.2321 138.157 94.8579 138.098 94.5624 137.98C94.267 137.855 94.0306 137.684 93.8534 137.467C93.6824 137.25 93.5607 136.994 93.489 136.698C93.4229 136.402 93.3905 136.077 93.3905 135.722V135.259C93.3905 134.91 93.4264 134.588 93.4988 134.292C93.5776 133.996 93.7056 133.74 93.8829 133.523C94.0602 133.306 94.2965 133.139 94.592 133.02C94.8874 132.896 95.2518 132.833 95.6851 132.833ZM95.695 137.388C96.1874 137.388 96.5286 137.264 96.7192 137.014C96.9092 136.757 97.0048 136.337 97.0048 135.752V135.239C97.0048 134.943 96.9816 134.693 96.9359 134.489C96.8965 134.279 96.824 134.108 96.7192 133.977C96.6207 133.845 96.4857 133.75 96.3154 133.691C96.1508 133.625 95.944 133.592 95.695 133.592C95.4453 133.592 95.2349 133.625 95.0647 133.691C94.8938 133.75 94.7559 133.845 94.6511 133.977C94.5526 134.108 94.4801 134.279 94.4344 134.489C94.388 134.693 94.3655 134.943 94.3655 135.239V135.752C94.3655 136.047 94.388 136.3 94.4344 136.511C94.4801 136.721 94.5526 136.892 94.6511 137.023C94.7559 137.148 94.8938 137.24 95.0647 137.3C95.2349 137.359 95.4453 137.388 95.695 137.388Z" fill="#61636C"/>
<path d="M103.544 132.951V138.039H102.717L102.638 137.418C102.48 137.648 102.267 137.828 101.998 137.96C101.728 138.092 101.41 138.157 101.043 138.157C100.484 138.157 100.044 138.009 99.7229 137.714C99.4007 137.411 99.2404 136.961 99.2404 136.363V132.951H100.186V136.047C100.186 136.52 100.267 136.859 100.432 137.063C100.602 137.266 100.895 137.368 101.308 137.368C101.735 137.368 102.053 137.256 102.264 137.033C102.48 136.81 102.589 136.442 102.589 135.929V132.951H103.544Z" fill="#61636C"/>
<path d="M107.257 135.081C107.513 135.114 107.727 135.173 107.897 135.258C108.074 135.344 108.216 135.449 108.32 135.574C108.426 135.699 108.501 135.84 108.547 135.998C108.593 136.156 108.616 136.323 108.616 136.501V136.58C108.616 136.875 108.557 137.125 108.439 137.329C108.327 137.526 108.173 137.684 107.976 137.802C107.779 137.921 107.549 138.006 107.286 138.059C107.03 138.111 106.758 138.137 106.469 138.137C106.174 138.137 105.878 138.114 105.583 138.068C105.287 138.023 105.002 137.956 104.726 137.871L104.893 137.151C105.176 137.23 105.438 137.29 105.681 137.329C105.925 137.362 106.183 137.378 106.459 137.378C106.873 137.378 107.178 137.325 107.375 137.22C107.572 137.109 107.67 136.905 107.67 136.609C107.67 136.366 107.611 136.199 107.493 136.106C107.382 136.008 107.205 135.942 106.961 135.909L106.233 135.811C105.721 135.745 105.346 135.597 105.11 135.367C104.881 135.13 104.765 134.815 104.765 134.42V134.341C104.765 134.085 104.818 133.865 104.923 133.681C105.028 133.49 105.176 133.336 105.366 133.217C105.557 133.093 105.783 133 106.046 132.941C106.315 132.882 106.61 132.853 106.932 132.853C107.267 132.853 107.566 132.879 107.828 132.931C108.097 132.977 108.318 133.03 108.488 133.089L108.311 133.809C108.088 133.736 107.867 133.684 107.651 133.651C107.441 133.618 107.198 133.602 106.922 133.602C106.482 133.602 106.164 133.661 105.967 133.779C105.77 133.891 105.671 134.072 105.671 134.322C105.671 134.539 105.728 134.693 105.839 134.785C105.951 134.877 106.154 134.943 106.449 134.982L107.257 135.081Z" fill="#61636C"/>
<path d="M113.032 134.894L113.17 134.125H114.293C114.516 134.125 114.699 134.099 114.844 134.046C114.988 133.987 115.1 133.908 115.179 133.809C115.264 133.711 115.323 133.599 115.356 133.474C115.389 133.349 115.406 133.218 115.406 133.08C115.406 132.37 114.936 132.015 113.997 132.015C113.714 132.015 113.419 132.044 113.111 132.103C112.808 132.156 112.503 132.238 112.195 132.35L112.323 131.541C112.552 131.449 112.822 131.37 113.131 131.305C113.439 131.232 113.754 131.196 114.076 131.196C114.831 131.196 115.399 131.354 115.78 131.67C116.167 131.979 116.361 132.399 116.361 132.932V133.05C116.361 133.746 116.049 134.223 115.425 134.48C115.786 134.611 116.046 134.825 116.203 135.121C116.361 135.41 116.44 135.738 116.44 136.107V136.225C116.44 136.501 116.39 136.757 116.292 136.994C116.193 137.231 116.042 137.434 115.839 137.605C115.635 137.769 115.379 137.901 115.071 138C114.762 138.092 114.398 138.138 113.978 138.138C113.643 138.138 113.291 138.105 112.924 138.039C112.562 137.98 112.257 137.898 112.008 137.793L112.175 137.033C112.451 137.132 112.737 137.207 113.032 137.26C113.328 137.306 113.62 137.329 113.909 137.329C114.427 137.329 114.818 137.234 115.081 137.043C115.349 136.852 115.484 136.54 115.484 136.107C115.484 135.935 115.465 135.778 115.425 135.633C115.386 135.482 115.317 135.354 115.218 135.249C115.12 135.137 114.985 135.052 114.815 134.992C114.65 134.927 114.443 134.894 114.194 134.894H113.032Z" fill="#61636C"/>
<path d="M117.798 134.223C117.798 133.756 117.834 133.336 117.906 132.961C117.978 132.58 118.103 132.255 118.281 131.985C118.464 131.715 118.707 131.508 119.009 131.364C119.317 131.22 119.705 131.147 120.171 131.147C120.651 131.147 121.044 131.22 121.353 131.364C121.661 131.508 121.905 131.715 122.082 131.985C122.259 132.255 122.38 132.58 122.446 132.961C122.512 133.336 122.545 133.76 122.545 134.233V135.111C122.545 135.578 122.508 136.002 122.437 136.383C122.364 136.757 122.236 137.079 122.052 137.349C121.875 137.619 121.632 137.826 121.324 137.97C121.021 138.114 120.637 138.187 120.171 138.187C119.685 138.187 119.288 138.114 118.98 137.97C118.677 137.826 118.438 137.619 118.261 137.349C118.084 137.079 117.962 136.757 117.897 136.383C117.83 136.002 117.798 135.574 117.798 135.101V134.223ZM121.57 134.243C121.57 133.803 121.547 133.438 121.501 133.149C121.455 132.853 121.376 132.616 121.265 132.439C121.159 132.261 121.018 132.136 120.841 132.064C120.664 131.991 120.444 131.955 120.181 131.955C119.918 131.955 119.699 131.991 119.521 132.064C119.344 132.136 119.199 132.261 119.088 132.439C118.976 132.616 118.894 132.853 118.842 133.149C118.796 133.438 118.773 133.803 118.773 134.243V135.091C118.773 135.531 118.796 135.899 118.842 136.195C118.888 136.485 118.963 136.718 119.068 136.895C119.18 137.073 119.325 137.197 119.502 137.27C119.679 137.343 119.899 137.378 120.162 137.378C120.424 137.378 120.644 137.343 120.821 137.27C120.999 137.197 121.143 137.073 121.255 136.895C121.366 136.718 121.445 136.485 121.491 136.195C121.543 135.899 121.57 135.531 121.57 135.091V134.243Z" fill="#61636C"/>
<path d="M127.074 135.613C127.074 135.903 127.094 136.159 127.133 136.382C127.173 136.599 127.238 136.783 127.33 136.934C127.429 137.079 127.557 137.187 127.715 137.26C127.878 137.332 128.082 137.368 128.325 137.368C128.758 137.368 129.083 137.254 129.3 137.023C129.523 136.793 129.635 136.412 129.635 135.879V133.898C129.477 133.812 129.306 133.743 129.123 133.691C128.946 133.631 128.729 133.602 128.473 133.602C127.98 133.602 127.622 133.736 127.399 134.006C127.183 134.269 127.074 134.706 127.074 135.317V135.613ZM126.099 135.308C126.099 134.874 126.152 134.503 126.257 134.193C126.362 133.878 126.51 133.622 126.7 133.424C126.891 133.221 127.117 133.073 127.38 132.981C127.649 132.882 127.945 132.833 128.266 132.833C128.522 132.833 128.755 132.862 128.965 132.922C129.182 132.974 129.405 133.066 129.635 133.198V130.713H130.59V138.039H129.753L129.684 137.437C129.625 137.523 129.55 137.608 129.458 137.694C129.366 137.779 129.254 137.858 129.123 137.93C128.998 137.996 128.844 138.049 128.66 138.088C128.483 138.134 128.276 138.157 128.04 138.157C127.396 138.157 126.911 137.956 126.582 137.556C126.261 137.155 126.099 136.527 126.099 135.672V135.308Z" fill="#61636C"/>
<path d="M132.677 136.521C132.677 136.816 132.758 137.037 132.923 137.181C133.093 137.326 133.382 137.398 133.79 137.398C133.973 137.398 134.141 137.382 134.292 137.349C134.449 137.316 134.584 137.264 134.696 137.191C134.807 137.112 134.895 137.014 134.961 136.895C135.027 136.777 135.06 136.629 135.06 136.452V136.373C135.06 136.11 134.968 135.909 134.784 135.771C134.607 135.627 134.318 135.554 133.918 135.554H133.75C133.376 135.554 133.103 135.627 132.933 135.771C132.762 135.909 132.677 136.133 132.677 136.442V136.521ZM131.761 136.471C131.761 136.169 131.807 135.919 131.899 135.722C131.99 135.518 132.122 135.354 132.293 135.229C132.463 135.104 132.667 135.016 132.903 134.963C133.14 134.91 133.402 134.884 133.691 134.884C133.993 134.884 134.259 134.917 134.489 134.982C134.718 135.042 134.909 135.15 135.06 135.308V134.913C135.06 134.663 135.027 134.454 134.961 134.282C134.895 134.111 134.8 133.977 134.676 133.878C134.551 133.773 134.397 133.697 134.213 133.651C134.036 133.606 133.832 133.582 133.602 133.582C133.372 133.582 133.133 133.602 132.884 133.642C132.64 133.675 132.414 133.717 132.204 133.77L132.332 133.03C132.516 132.977 132.732 132.932 132.982 132.892C133.238 132.853 133.507 132.833 133.79 132.833C134.505 132.833 135.047 132.994 135.415 133.316C135.789 133.638 135.976 134.118 135.976 134.756V138.039H135.158L135.08 137.497C134.915 137.733 134.698 137.901 134.43 138C134.167 138.092 133.871 138.138 133.543 138.138C132.959 138.138 132.516 138.013 132.214 137.763C131.911 137.513 131.761 137.122 131.761 136.59V136.471Z" fill="#61636C"/>
<path d="M137.497 139.616C137.635 139.616 137.756 139.6 137.861 139.567C137.972 139.541 138.074 139.485 138.166 139.4C138.258 139.314 138.344 139.196 138.422 139.045C138.508 138.9 138.593 138.713 138.679 138.483L138.836 138.059L136.738 132.951H137.792L139.309 137.043L140.697 132.951H141.712L139.535 138.68C139.417 138.995 139.292 139.262 139.161 139.478C139.036 139.695 138.898 139.869 138.747 140.001C138.603 140.139 138.439 140.238 138.255 140.297C138.078 140.356 137.874 140.386 137.644 140.386C137.467 140.386 137.3 140.369 137.142 140.336C136.985 140.303 136.85 140.267 136.738 140.228L136.876 139.538C136.961 139.564 137.06 139.583 137.172 139.597C137.283 139.61 137.391 139.616 137.497 139.616Z" fill="#61636C"/>
<path d="M144.842 135.081C145.098 135.114 145.311 135.173 145.482 135.258C145.66 135.344 145.801 135.449 145.906 135.574C146.011 135.699 146.087 135.84 146.132 135.998C146.178 136.156 146.201 136.323 146.201 136.501V136.58C146.201 136.875 146.142 137.125 146.024 137.329C145.912 137.526 145.758 137.684 145.561 137.802C145.364 137.921 145.134 138.006 144.872 138.059C144.616 138.111 144.343 138.137 144.054 138.137C143.759 138.137 143.463 138.114 143.168 138.068C142.872 138.023 142.587 137.956 142.311 137.871L142.479 137.151C142.761 137.23 143.024 137.29 143.266 137.329C143.509 137.362 143.769 137.378 144.044 137.378C144.458 137.378 144.763 137.325 144.96 137.22C145.157 137.109 145.256 136.905 145.256 136.609C145.256 136.366 145.197 136.199 145.078 136.106C144.967 136.008 144.789 135.942 144.547 135.909L143.818 135.811C143.306 135.745 142.932 135.597 142.695 135.367C142.465 135.13 142.35 134.815 142.35 134.42V134.341C142.35 134.085 142.403 133.865 142.508 133.681C142.613 133.49 142.761 133.336 142.951 133.217C143.142 133.093 143.368 133 143.631 132.941C143.9 132.882 144.196 132.853 144.517 132.853C144.852 132.853 145.151 132.879 145.413 132.931C145.683 132.977 145.902 133.03 146.073 133.089L145.896 133.809C145.673 133.736 145.453 133.684 145.236 133.651C145.026 133.618 144.783 133.602 144.507 133.602C144.068 133.602 143.749 133.661 143.552 133.779C143.355 133.891 143.257 134.072 143.257 134.322C143.257 134.539 143.312 134.693 143.424 134.785C143.536 134.877 143.739 134.943 144.035 134.982L144.842 135.081Z" fill="#61636C"/>
</g>
<defs>
<clipPath id="clip0_1_653">
<path d="M0 20C0 8.9543 8.95431 0 20 0H184C195.046 0 204 8.9543 204 20V161C204 172.046 195.046 181 184 181H20C8.9543 181 0 172.046 0 161V20Z" fill="white"/>
</clipPath>
</defs>
</svg>
